<svg xmlns="http://www.w3.org/2000/svg" version="1.0" viewBox="0 0 900 300">
  <path d="M134.4 254.8c.3-.3 2.6-.8 3.5-.7.4 0-2.3.8-3.2 1-.7 0-.7 0-.3-.3Zm3.8-.8 1-.6a20 20 0 0 0 6.3-5.5l2-4.2 1-2c1-2 2.2-3.2 4.6-4.5 2-1 3.4-2.2 3.5-3.2l.1-1.8c0-2 .4-2.4 2.1-2.4 1.7 0 3-1 3.6-3 .3-.7.3-1.5.4-4 0-3.5.2-4.5 1-5.6.7-1 2-1.7 4-2.2 3-.8 4.4-2 4.4-3.8 0-.7-.4-1.6-.8-1.8 0 0 0-.2.3-.3a25 25 0 0 0 9.6-6.4 38.7 38.7 0 0 0 6.7-9.2l.2-.5c.5-1.2.7-3.3.6-4.6 0-1.5 0-1.5.8-1.9 2.3-1.1 5.8-3.6 7.4-5.4 2.8-3 4-5.3 4.4-9.4.2-1.5.8-4 1.1-4.4l.6-1 2-2.7c1.5-1.7 2.2-2.8 3-4.4 1.1-2.5 1.1-2.5 1.7-3.2 1.5-1.8 3.7-1.7 4.6 0 .2.4.2 1.1 0 2.8 0 1.7 0 2.6.2 3.1.3.9 1.2 3.4 1.4 3.6l1.1 3c.4 1.5.2 3.6-.7 6.4-.5 1.8-.7 3.1-.8 6.6-.2 5.5-.9 6.9-6.1 13a18.3 18.3 0 0 0-5.3 11.2c-.6 3-.6 3-1.1 4.4-1.1 3.2-4.2 6.4-9 9.3-3.1 2-6.3 4.3-7.5 5.6l-2.5 3-2.9 3.3c-.9 1-3.3 2.7-4.8 3.4a14.6 14.6 0 0 0-5.6 4.9c-1.5 2-2.7 2.5-5.8 2.6-3.5 0-4.8.6-7.3 2.6a40.2 40.2 0 0 1-19.1 9.2h-.4Zm-54.5-8.3a15.1 15.1 0 0 1 2.3-9c1-1.6 1.8-2.9 5.6-8.3l3-4.2c2-3 2.4-3.2 5-4.2a6 6 0 0 0 4-4.6c.3-1.4.3-2.7-.1-3.6-.3-.7-.4-.8-2-.3-.8.2-2.4 1-2.8 1.6-.5.6-.4 0 .1-1a21 21 0 0 1 8.5-7.5 21.6 21.6 0 0 0 2.4-1.4 92.2 92.2 0 0 0 16.2-11.3c2.7-2.8 3.6-4.6 4-7.8.3-1.6.7-2.2 2.7-4.2 2-2.1 2.4-2.6 3.5-4.3a35.8 35.8 0 0 0 4.2-9.9l.3-1.6c.5-2.8.3-3.6-.4-1.8l-.3 1-2.5 5.1-.7 1-2 2.9c-.2 0-.2-.3-.1-.6l.1-.9a45.5 45.5 0 0 1 12-20c2.6-2.5 3.1-3 5.7-5l1.7-1.4c1.4-1.1 4.8-3.4 9-6 2.7-1.7 4.8-3.3 6.2-4.7 2-2 2.9-3.5 4-6.7 1-3.2 1.6-4 2.8-4.8l1.2-.6c.3 0 .5 0 .6-.2l.5-.1c1 0 2.8-1.5 3.8-3 1.1-1.6 1.6-3 3.3-8.2a113.5 113.5 0 0 1 5-13.8c.4-.7 1.2-1.3 2.4-1.8 1.3-.6 1.7-1.2 1.9-2.8.6-8 2.8-13.4 7.6-18.5 2-2.1 3.3-3 6.3-4.6l3.1-1.6a41 41 0 0 0 5.3-5.3l5.1-5.6a49.5 49.5 0 0 0-2.7 5.3A68 68 0 0 0 213 81l1.7-.4 1.7-.5-1.2 2.2-1 1.8a86.5 86.5 0 0 0-3.4 6.9c-1 2.5-1.5 4.8-1.6 8.2-.2 6.8-.2 7.2-1 9.1l-.4 1.5-.3.6c-.8 2.2-1.9 5.9-2.2 7.9l-1 5.6-1.2 5.5a47 47 0 0 1-.9 4.6 138.3 138.3 0 0 1-1.2 6.4l-.2 1-1.6 6.1c-1 3.4-2.1 4.7-5.1 6-3.7 1.6-5 3.1-7.7 9.5-2.4 5.5-2.7 6-5.3 8.5-1.8 1.8-2 2-2.5 3.5-1 2.4-2.3 3.6-6.8 6a57 57 0 0 0-12.4 8.7c-1 1-1.1 1.2-1.6 2.7-.5 1.6-.7 2-1.6 2.3-.5.2-.6.3-.6.8 0 1-.1 1.2-.6 2.1-.4 1-1.1 1.5-2.5 2.2-1.9.9-5.8 3.3-8.7 5.2a211 211 0 0 0-10.4 7.7c-2.4 2-4 2.7-5.5 2.7l-2.5-.2c-1.2-.3-1.3-.3-2 0-.7.5-1.5 2-2.1 4l-.6 2-.6 1.8a16 16 0 0 1-6.1 8 15.9 15.9 0 0 1-6.5 2.7c-2.5.6-3.3.9-5.7 2.1a51.5 51.5 0 0 1-8.4 3.6c-1 .3-3.9 1.8-5.3 2.7a14.7 14.7 0 0 0-4.1 4.1l-.2-.4Zm-20.4-37.9-.7-1.7c-.6-1.7-1-4-1.3-5.9a66.4 66.4 0 0 1 .5-12.4l.2-1.2.2-1.6.3-1.7.4-1.9c.4-1.8.3-2-.5-1a15 15 0 0 0-1.1 1.8l-1 1.8a27 27 0 0 0-3 11c0 .7 0 .7-.1-.2-.3-1.7-.3-7.7 0-9.3l.3-1a46.7 46.7 0 0 1 6.3-16.1l1.4-2a37.8 37.8 0 0 1 4-5.4c1.2-1.6 4-4.6 8.1-8.8a43.2 43.2 0 0 1 22.2-14c.4 0 3.6-2 4.4-2.8 1-1 2.2-2.6 2.7-3.6.4-.9 1-3 1.5-4.9 1.5-5.5 3.4-7.9 7.1-8.6 1.8-.4 2.4-.5 3.2-1 1.3-.6 2.9-2.7 4-5.3l.6-1.1.3-.9 1.2-3.3c1.8-5.7 2.5-7.5 3.5-9.6 2-4.1 3.4-5.4 10-9.8 4.1-2.8 5.6-4.7 6.8-9.3 1.1-4.1 2-5.9 3.8-7.2 1-.8 1.9-1.1 3.6-1.1.8 0 1.6 0 1.9-.2 1.1-.4 1.8-1.6 4-6.7a132 132 0 0 1 2-4.3c.8-1.6.8-1.6 1.6-1 .9.7 2.1 1.2 3.3 1.3.8 0 2.7-.2 2.8-.4l.2-1.2c.3-2.7 2-4.7 5-5.6a23 23 0 0 0 6-3.4 60.5 60.5 0 0 0 11.4-12.4l1.7-2a51.2 51.2 0 0 1 3.6-3.6c-1.6 2-4.3 5.8-5.6 8a91 91 0 0 0-5.8 12.7l-.4 1.5-1.1 4.4c-1.1 4.6-1.6 6-2.8 7.5-.8.9-2.2 1.8-3.4 2-.8.2-1.8 1.3-2.3 2.5-.7 1.8-2.2 3.2-4.6 4.4a10 10 0 0 0-3.3 2.8c-.4.6-1.2 2.7-1.2 3v1.3l-.3 2.6a15.8 15.8 0 0 1-.7 4.5c0 .4-.8 1.5-1.8 2.6a9.1 9.1 0 0 0-2 5.5c-.2 3.4-.4 4.9-.6 6.5l-.3 2.2a35.7 35.7 0 0 1-2.7 9.1 20.8 20.8 0 0 1-5.6 6.6c-3.3 2.8-4 3.7-5 7l-1.1 2.8c-.6 1-2 2.2-4.4 3.8-2 1.3-2.4 1.8-3.3 2.9a10.7 10.7 0 0 0-1.3 2l-.5 1c0 .3-.3.8-.6 1.2l-1 1.7c-1 1.6-3.5 4.2-5.8 6.3l-1.7 1.5-2.1 1.6-4.5 3.5a565 565 0 0 1-16.5 12.6c-1.7-.8-3.6 0-6.2 2.7-.9 1-2 2.6-2.3 3.5a39 39 0 0 0-9 7.5c-1 1.1-1.8 1.5-3.5 1.7-3.2.2-6 1.7-9 4.6-.9 1-3 4-3.8 5.9a131.5 131.5 0 0 0-6 14.9l-.4-.8ZM36 163.5a77.8 77.8 0 0 1 8.6-23.8l.9-1.6a24.7 24.7 0 0 1 1.8-2.9l1-1.5.8-1.2.5-.8.6-.8.5-.9a12 12 0 0 0 1.7-3.8c.3-1.2.4-2.6.1-2.6a54 54 0 0 0-10.4 16.7c-.1 0 .3-1.7.7-2.8l.4-1a703.4 703.4 0 0 1 7.2-14.9l.5-1a741 741 0 0 1 11.6-22.1l1.2-2a307.4 307.4 0 0 1 5.3-10 40 40 0 0 0-7.5 9.3 51.8 51.8 0 0 0-4.1 7.9 28.4 28.4 0 0 1 4.4-9.4 212.9 212.9 0 0 1 4.6-6.2l.9-1 .5-.7.6-.7a83 83 0 0 1 11-11.3 91.5 91.5 0 0 1 12.9-8.6 211 211 0 0 1 11.5-6.8l3.3-1.9 5.8-3.4 3-1.7 2.3-1.4 1.3-.8 2.2-1.2 3-1.7 5.8-3.5 5.3-3 .8-.5-2 1.7c-3.4 2.4-5.7 5-7.3 7.9l-2.8 5.2c-1 1.8-2.3 4-3.1 5.1a53.6 53.6 0 0 0-8.2 13.7c-.6 1.6-.8 2.8-.6 2.8l2.5-2.2c2.5-2.6 2.5-2.7 0 1.4a145.3 145.3 0 0 0-5.7 10 367 367 0 0 0-1.8 3.7c.3.4 3.3-1.7 5.1-3.5 1.5-1.6 1.6-1.6.6.3l-1 1.9a18.4 18.4 0 0 1-1.4 2.3l-.3.7-1.8 2.7a84.6 84.6 0 0 1-30.5 27.3l-4.6 2.7-1.7.9c-.3 0-4.8 3.2-5.6 4-2.5 2.3-3.2 3.7-4 7.9-1.2 5.3-1.8 6-6.6 7.2a18 18 0 0 0-5 2 25.2 25.2 0 0 0-6.9 5.9l-1.7 2.2a77.5 77.5 0 0 0-4.4 6.3l-.8 1.5-.5.8-.3.7-.2.5Zm218.6-69.4h22.2a38 38 0 0 1 38.7 38.3 38 38 0 0 1-38.7 38.4h-22.2Zm17.5 61.1h2.7c6.4 0 11.6-2.1 15.6-6.4a23 23 0 0 0 6.2-16.3c0-6.5-2-11.9-6-16.2a20.6 20.6 0 0 0-15.8-6.5H272ZM367 94.1v15.4h-26.3v15.2h25.2v15.4h-25.2v15.4H367v15.3h-44V94.1Zm54 0v15.4h-26.4v15.2h25.2v15.4h-25.2v15.4H421v15.3h-44V94.1Zm10 0h28c7.8 0 14.1 2 19 6.1 4.8 4 7.2 9.9 7.2 17.6a23 23 0 0 1-7.4 18 27.3 27.3 0 0 1-18.8 6.6h-10.5v28.4H431Zm17.5 34.3h5c3.8 0 7-.7 9.5-2.3 2.5-1.6 3.8-4.2 3.8-7.8 0-3.6-1.3-6.3-3.8-7.8a17.7 17.7 0 0 0-9.6-2.4h-5Zm39.5-18.9V94h54v15.4h-18.2v61.3h-17.5v-61.3Zm99.2-15.4 31 76.7h-18.8l-5.7-15.3h-29.1l-5.7 15.3H540l31-76.7Zm.6 46-8.6-22.2h-.1l-8.6 22.3Zm102.7-12.2v16.6c-2 9.1-6.3 16-13 20.7-6.7 4.7-14.2 7-22.4 7a35 35 0 0 1-26.5-11.6 39.5 39.5 0 0 1-10.9-28 40 40 0 0 1 10.7-28.3c7.1-7.7 16-11.5 26.7-11.5 12.4 0 22.3 4.3 29.5 13l-11.4 12.6a19 19 0 0 0-17-9.8c-5.5 0-10 2.3-13.9 7a26 26 0 0 0-5.7 17c0 6.5 1.9 12 5.7 16.6a17.9 17.9 0 0 0 25.5 2.9c3.3-2.7 5-6.3 5-10.7H655v-13.5Zm4.3 4.5c0-11 3.7-20.4 11.3-28.1a37 37 0 0 1 27.3-11.5 38.7 38.7 0 0 1 38.6 39.7c0 11.2-3.7 20.6-11 28.3a36.6 36.6 0 0 1-27.6 11.4 36.8 36.8 0 0 1-27.7-11.3 39.6 39.6 0 0 1-11-28.5Zm18.8 0c0 4 .6 7.7 1.9 11a18.5 18.5 0 0 0 18 12c6.4 0 11.3-2.3 14.7-6.8 3.3-4.4 5-9.8 5-16.2a26 26 0 0 0-5.1-16 17.2 17.2 0 0 0-14.7-6.8c-6.3 0-11.2 2.2-14.6 6.7a25.8 25.8 0 0 0-5.2 16.1Zm83.6-9.2v47.6h-17.5V94.1h17.5l30.5 47.6h.2V94.1h17.4v76.7H828l-30.5-47.6Zm-519.5 90.5c0 2.7-1 4.8-3 6.3s-4.6 2.2-8 2.2h-12.3v-30h11c7 0 10.5 2.4 10.5 7.3 0 1.7-.5 3.2-1.5 4.4a8 8 0 0 1-4.2 2.5 9 9 0 0 1 5.5 2.4c1.3 1.3 2 3 2 5Zm-5.9-13.8c0-1.6-.5-2.7-1.7-3.4-1-.7-2.7-1-4.8-1h-6.8v9.4h6.8c2.2 0 3.8-.4 5-1.2 1-.8 1.5-2 1.5-3.8Zm1.7 13.5c0-3.5-2.4-5.3-7.4-5.3h-7.6V219h7.9c2.5 0 4.3-.4 5.4-1.3 1.2-1 1.7-2.3 1.7-4.2Zm45 8.8v-30h4v26.7h15.2v3.3ZM406 207a18 18 0 0 1-1.8 8.3c-1.2 2.4-3 4.2-5.2 5.4a16 16 0 0 1-8 2c-3 0-5.7-.7-8-2a12 12 0 0 1-5-5.4 18.3 18.3 0 0 1-1.8-8.2c0-4.9 1.3-8.6 4-11.3 2.6-2.7 6.2-4 11-4 3 0 5.6.5 7.9 1.7 2.2 1.3 4 3 5.1 5.3 1.2 2.4 1.8 5.1 1.8 8.3Zm-4.2 0a13 13 0 0 0-2.8-8.8 10 10 0 0 0-7.9-3.2c-3.4 0-6 1-8 3.2-1.8 2.1-2.8 5-2.8 8.9 0 3.7 1 6.7 2.9 9 1.9 2.1 4.5 3.2 7.9 3.2 3.4 0 6.1-1 8-3.2 1.8-2.1 2.7-5.1 2.7-9Zm58.2-12c-3.4 0-6 1.1-7.8 3.3a13 13 0 0 0-2.8 8.8c0 3.6 1 6.6 2.9 8.8 2 2.3 4.5 3.4 7.8 3.4 4.2 0 7.4-2 9.5-6.3l3.3 1.7a13.5 13.5 0 0 1-13 8c-3 0-5.7-.7-7.9-2-2.2-1.2-3.9-3-5-5.3a18.6 18.6 0 0 1-1.8-8.3c0-4.8 1.3-8.6 4-11.3 2.5-2.7 6.1-4 10.7-4 3.2 0 5.8.5 8 1.8a11 11 0 0 1 4.7 5.6l-3.8 1.2a8 8 0 0 0-3.4-4c-1.5-.9-3.4-1.4-5.5-1.4Zm73 27.2-12-14.5-3.8 3v11.5H513v-30h4v15l14.5-15h4.8l-12.8 13 14.5 17Zm57.5-27.2c-3.4 0-6 1.1-7.8 3.3a13 13 0 0 0-2.8 8.8c0 3.6 1 6.6 3 8.8a9.3 9.3 0 0 0 7.7 3.4c4.2 0 7.4-2 9.5-6.3l3.3 1.7a13.5 13.5 0 0 1-13 8c-3 0-5.6-.7-7.8-2-2.2-1.2-4-3-5-5.3a18.6 18.6 0 0 1-1.8-8.3c0-4.8 1.3-8.6 3.9-11.3a14 14 0 0 1 10.7-4c3.2 0 5.9.5 8 1.8 2.2 1.2 3.8 3.1 4.8 5.6l-3.9 1.2a8 8 0 0 0-3.4-4c-1.5-.9-3.3-1.4-5.4-1.4Zm73.5 27.2v-14h-16.3v14h-4v-30h4v12.7h16.2v-12.7h4.1v30Zm67.4 0-3.4-8.8h-13.7l-3.5 8.8h-4.2l12.3-30h4.6l12 30Zm-10.3-27-.2.6a90 90 0 0 1-1.5 4.6l-3.9 9.8h11.3l-4-9.9-1-3.3Zm53.5 27v-30h4v30Zm66.1 0-16-25.6v2l.2 3.7v20h-3.7v-30.1h4.8l16.2 25.7c-.2-2.8-.2-4.8-.2-6v-19.7h3.6v30Zm0 0"/>
</svg>
