<svg xmlns="http://www.w3.org/2000/svg" xmlns:xlink="http://www.w3.org/1999/xlink" width="512" zoomAndPan="magnify" viewBox="0 0 384 383.999986" height="512" preserveAspectRatio="xMidYMid meet" version="1.0"><defs><clipPath id="id1"><path d="M 7 6 L 378 6 L 378 378 L 7 378 Z M 7 6 " clip-rule="nonzero"/></clipPath><clipPath id="id2"><path d="M 7.027344 191.996094 L 192.113281 6.910156 L 377.195312 191.996094 L 192.113281 377.082031 Z M 7.027344 191.996094 " clip-rule="nonzero"/></clipPath><clipPath id="id3"><path d="M 31 31 L 352 31 L 352 353 L 31 353 Z M 31 31 " clip-rule="nonzero"/></clipPath><clipPath id="id4"><path d="M 31.617188 192 L 191.777344 31.839844 L 351.9375 192 L 191.777344 352.160156 Z M 31.617188 192 " clip-rule="nonzero"/></clipPath><clipPath id="id5"><path d="M 112 116 L 272 116 L 272 276 L 112 276 Z M 112 116 " clip-rule="nonzero"/></clipPath><clipPath id="id6"><path d="M 79.460938 187.652344 L 171.269531 108.066406 L 275.414062 228.210938 L 183.609375 307.792969 Z M 79.460938 187.652344 " clip-rule="nonzero"/></clipPath><clipPath id="id7"><path d="M 79.460938 187.652344 L 199.605469 83.503906 L 303.75 203.648438 L 183.609375 307.792969 Z M 79.460938 187.652344 " clip-rule="nonzero"/></clipPath><clipPath id="id8"><path d="M 79.460938 187.652344 L 199.605469 83.503906 L 303.75 203.648438 L 183.609375 307.792969 Z M 79.460938 187.652344 " clip-rule="nonzero"/></clipPath><clipPath id="id9"><path d="M 139 144 L 243 144 L 243 247 L 139 247 Z M 139 144 " clip-rule="nonzero"/></clipPath><clipPath id="id10"><path d="M 118.707031 190.453125 L 196.34375 123.148438 L 263.648438 200.789062 L 186.007812 268.09375 Z M 118.707031 190.453125 " clip-rule="nonzero"/></clipPath><clipPath id="id11"><path d="M 178.957031 117.421875 L 248.707031 117.421875 L 248.707031 145.171875 L 178.957031 145.171875 Z M 178.957031 117.421875 " clip-rule="nonzero"/></clipPath><clipPath id="id12"><path d="M 222 177 L 298 177 L 298 228 L 222 228 Z M 222 177 " clip-rule="nonzero"/></clipPath><clipPath id="id13"><path d="M 232.054688 177.519531 L 297.695312 201.109375 L 288.308594 227.222656 L 222.667969 203.632812 Z M 232.054688 177.519531 " clip-rule="nonzero"/></clipPath><clipPath id="id14"><path d="M 176.789062 65.472656 L 204.539062 65.472656 L 204.539062 255.222656 L 176.789062 255.222656 Z M 176.789062 65.472656 " clip-rule="nonzero"/></clipPath><clipPath id="id15"><path d="M 150 41 L 220 41 L 220 110 L 150 110 Z M 150 41 " clip-rule="nonzero"/></clipPath><clipPath id="id16"><path d="M 150.246094 89.507812 L 200.558594 41.199219 L 219.777344 61.21875 L 169.464844 109.527344 Z M 150.246094 89.507812 " clip-rule="nonzero"/></clipPath><clipPath id="id17"><path d="M 217 90 L 294 90 L 294 168 L 217 168 Z M 217 90 " clip-rule="nonzero"/></clipPath><clipPath id="id18"><path d="M 269.300781 167.796875 L 217.449219 113.605469 L 241.292969 90.792969 L 293.144531 144.984375 Z M 269.300781 167.796875 " clip-rule="nonzero"/></clipPath><clipPath id="id19"><path d="M 232 105 L 309 105 L 309 183 L 232 183 Z M 232 105 " clip-rule="nonzero"/></clipPath><clipPath id="id20"><path d="M 284.300781 182.796875 L 232.449219 128.605469 L 256.292969 105.792969 L 308.144531 159.984375 Z M 284.300781 182.796875 " clip-rule="nonzero"/></clipPath></defs><rect x="-38.4" width="460.8" fill="#ffffff" y="-38.399999" height="460.799983" fill-opacity="1"/><rect x="-38.4" width="460.8" fill="#ffffff" y="-38.399999" height="460.799983" fill-opacity="1"/><rect x="-38.4" width="460.8" fill="#ffffff" y="-38.399999" height="460.799983" fill-opacity="1"/><rect x="-38.4" width="460.8" fill="#ffffff" y="-38.399999" height="460.799983" fill-opacity="1"/><g clip-path="url(#id1)"><g clip-path="url(#id2)"><path fill="#171752" d="M 7.027344 191.996094 L 192.113281 377.082031 L 377.195312 191.996094 L 192.113281 6.910156 L 7.027344 191.996094 M 365.40625 191.996094 L 191.988281 365.414062 L 18.570312 191.996094 L 191.988281 18.578125 L 365.40625 191.996094 " fill-opacity="1" fill-rule="nonzero"/></g></g><g clip-path="url(#id3)"><g clip-path="url(#id4)"><path fill="#171752" d="M 31.617188 192 L 191.777344 31.839844 L 351.9375 192 L 191.777344 352.160156 L 31.617188 192 " fill-opacity="1" fill-rule="nonzero"/></g></g><g clip-path="url(#id5)"><g clip-path="url(#id6)"><g clip-path="url(#id7)"><g clip-path="url(#id8)"><path fill="#ffffff" d="M 251.675781 143.574219 C 252.53125 144.558594 253.355469 145.5625 254.160156 146.585938 C 254.964844 147.609375 255.742188 148.652344 256.492188 149.714844 C 257.242188 150.777344 257.96875 151.855469 258.667969 152.953125 C 259.367188 154.050781 260.039062 155.164062 260.683594 156.296875 C 261.328125 157.425781 261.941406 158.570312 262.53125 159.730469 C 263.117188 160.894531 263.675781 162.066406 264.207031 163.253906 C 264.738281 164.445312 265.238281 165.644531 265.710938 166.855469 C 266.179688 168.070312 266.621094 169.292969 267.03125 170.527344 C 267.445312 171.761719 267.824219 173.003906 268.175781 174.257812 C 268.523438 175.511719 268.84375 176.773438 269.132812 178.042969 C 269.417969 179.308594 269.675781 180.585938 269.902344 181.867188 C 270.128906 183.148438 270.320312 184.433594 270.484375 185.726562 C 270.648438 187.015625 270.777344 188.308594 270.875 189.609375 C 270.976562 190.90625 271.042969 192.203125 271.078125 193.503906 C 271.113281 194.804688 271.117188 196.105469 271.085938 197.40625 C 271.058594 198.707031 270.996094 200.007812 270.90625 201.304688 C 270.8125 202.601562 270.6875 203.898438 270.53125 205.1875 C 270.375 206.480469 270.1875 207.765625 269.96875 209.050781 C 269.75 210.332031 269.5 211.609375 269.214844 212.878906 C 268.933594 214.148438 268.621094 215.410156 268.277344 216.667969 C 267.933594 217.921875 267.558594 219.167969 267.152344 220.402344 C 266.75 221.640625 266.3125 222.863281 265.847656 224.078125 C 265.382812 225.296875 264.886719 226.496094 264.363281 227.6875 C 263.839844 228.878906 263.285156 230.054688 262.703125 231.21875 C 262.121094 232.382812 261.511719 233.53125 260.875 234.664062 C 260.234375 235.800781 259.570312 236.917969 258.875 238.019531 C 258.183594 239.117188 257.460938 240.203125 256.714844 241.265625 C 255.96875 242.332031 255.195312 243.378906 254.398438 244.40625 C 253.601562 245.433594 252.777344 246.441406 251.929688 247.429688 C 251.082031 248.417969 250.210938 249.382812 249.316406 250.328125 C 248.421875 251.273438 247.503906 252.195312 246.566406 253.09375 C 245.625 253.992188 244.664062 254.867188 243.679688 255.71875 C 242.695312 256.574219 241.695312 257.402344 240.667969 258.203125 C 239.644531 259.007812 238.601562 259.785156 237.542969 260.535156 C 236.480469 261.289062 235.398438 262.011719 234.300781 262.710938 C 233.203125 263.410156 232.089844 264.082031 230.960938 264.726562 C 229.828125 265.371094 228.683594 265.984375 227.523438 266.574219 C 226.363281 267.160156 225.1875 267.71875 224 268.25 C 222.8125 268.78125 221.609375 269.28125 220.398438 269.753906 C 219.1875 270.222656 217.960938 270.664062 216.726562 271.074219 C 215.492188 271.488281 214.25 271.867188 212.996094 272.21875 C 211.742188 272.566406 210.484375 272.886719 209.214844 273.175781 C 207.945312 273.464844 206.667969 273.71875 205.386719 273.945312 C 204.105469 274.171875 202.820312 274.363281 201.53125 274.527344 C 200.238281 274.691406 198.945312 274.820312 197.648438 274.917969 C 196.351562 275.019531 195.050781 275.085938 193.75 275.121094 C 192.449219 275.15625 191.148438 275.160156 189.847656 275.128906 C 188.546875 275.101562 187.25 275.039062 185.949219 274.949219 C 184.652344 274.855469 183.359375 274.730469 182.066406 274.574219 C 180.773438 274.417969 179.488281 274.230469 178.207031 274.011719 C 176.921875 273.792969 175.648438 273.542969 174.375 273.261719 C 173.105469 272.976562 171.84375 272.664062 170.589844 272.320312 C 169.335938 271.976562 168.089844 271.601562 166.851562 271.199219 C 165.617188 270.792969 164.390625 270.355469 163.175781 269.890625 C 161.960938 269.425781 160.757812 268.933594 159.566406 268.40625 C 158.375 267.882812 157.199219 267.328125 156.035156 266.746094 C 154.871094 266.164062 153.722656 265.554688 152.589844 264.917969 C 151.457031 264.277344 150.339844 263.613281 149.238281 262.917969 C 148.136719 262.226562 147.054688 261.503906 145.988281 260.757812 C 144.921875 260.011719 143.875 259.238281 142.847656 258.441406 C 141.820312 257.644531 140.8125 256.820312 139.824219 255.972656 C 138.839844 255.125 137.871094 254.253906 136.929688 253.359375 C 135.984375 252.464844 135.0625 251.546875 134.164062 250.609375 C 133.261719 249.667969 132.386719 248.707031 131.535156 247.722656 C 130.683594 246.738281 129.855469 245.738281 129.050781 244.714844 C 128.25 243.6875 127.472656 242.644531 126.71875 241.585938 C 125.96875 240.523438 125.242188 239.441406 124.542969 238.34375 C 123.84375 237.246094 123.175781 236.132812 122.53125 235.003906 C 121.886719 233.871094 121.269531 232.726562 120.683594 231.566406 C 120.09375 230.40625 119.535156 229.230469 119.003906 228.042969 C 118.476562 226.855469 117.972656 225.65625 117.503906 224.441406 C 117.03125 223.230469 116.589844 222.003906 116.179688 220.769531 C 115.769531 219.535156 115.386719 218.292969 115.039062 217.039062 C 114.6875 215.785156 114.367188 214.527344 114.082031 213.257812 C 113.792969 211.988281 113.535156 210.714844 113.308594 209.433594 C 113.085938 208.152344 112.890625 206.863281 112.726562 205.574219 C 112.566406 204.28125 112.433594 202.988281 112.335938 201.691406 C 112.238281 200.394531 112.171875 199.09375 112.136719 197.792969 C 112.101562 196.492188 112.097656 195.191406 112.125 193.890625 C 112.152344 192.589844 112.214844 191.292969 112.308594 189.996094 C 112.398438 188.695312 112.523438 187.402344 112.679688 186.109375 C 112.835938 184.820312 113.023438 183.53125 113.242188 182.25 C 113.464844 180.964844 113.714844 179.691406 113.996094 178.421875 C 114.277344 177.148438 114.589844 175.886719 114.933594 174.632812 C 115.277344 173.378906 115.652344 172.132812 116.058594 170.894531 C 116.464844 169.660156 116.898438 168.433594 117.363281 167.21875 C 117.828125 166.003906 118.324219 164.800781 118.847656 163.609375 C 119.371094 162.417969 119.925781 161.242188 120.507812 160.078125 C 121.089844 158.914062 121.699219 157.765625 122.339844 156.632812 C 122.976562 155.5 123.644531 154.382812 124.335938 153.28125 C 125.03125 152.179688 125.75 151.097656 126.496094 150.03125 C 127.242188 148.964844 128.015625 147.917969 128.8125 146.890625 C 129.613281 145.863281 130.433594 144.855469 131.28125 143.867188 C 132.128906 142.882812 133 141.914062 133.894531 140.972656 C 134.789062 140.027344 135.707031 139.105469 136.648438 138.207031 C 137.585938 137.304688 138.550781 136.429688 139.53125 135.578125 C 140.515625 134.726562 141.519531 133.898438 142.542969 133.09375 C 143.566406 132.292969 144.609375 131.515625 145.671875 130.761719 C 146.734375 130.011719 147.8125 129.285156 148.910156 128.585938 C 150.007812 127.890625 151.121094 127.21875 152.253906 126.574219 C 153.382812 125.929688 154.527344 125.3125 155.6875 124.726562 C 156.851562 124.136719 158.023438 123.578125 159.210938 123.046875 C 160.402344 122.519531 161.601562 122.019531 162.8125 121.546875 C 164.027344 121.074219 165.25 120.632812 166.484375 120.222656 C 167.71875 119.8125 168.960938 119.429688 170.214844 119.082031 C 171.46875 118.730469 172.730469 118.410156 174 118.125 C 175.265625 117.835938 176.542969 117.578125 177.824219 117.351562 C 179.105469 117.128906 180.390625 116.933594 181.683594 116.769531 C 182.972656 116.609375 184.265625 116.476562 185.5625 116.378906 C 186.863281 116.28125 188.160156 116.214844 189.460938 116.179688 C 190.761719 116.144531 192.0625 116.140625 193.363281 116.167969 C 194.664062 116.199219 195.964844 116.257812 197.261719 116.351562 C 198.558594 116.441406 199.855469 116.566406 201.144531 116.722656 C 202.4375 116.878906 203.722656 117.066406 205.007812 117.285156 C 206.289062 117.507812 207.566406 117.757812 208.835938 118.039062 C 210.105469 118.320312 211.367188 118.632812 212.621094 118.976562 C 213.878906 119.320312 215.125 119.695312 216.359375 120.101562 C 217.597656 120.507812 218.820312 120.941406 220.035156 121.40625 C 221.25 121.871094 222.453125 122.367188 223.644531 122.890625 C 224.835938 123.414062 226.011719 123.96875 227.175781 124.550781 C 228.339844 125.132812 229.488281 125.742188 230.621094 126.382812 C 231.757812 127.019531 232.875 127.6875 233.972656 128.378906 C 235.074219 129.074219 236.160156 129.792969 237.222656 130.539062 C 238.289062 131.285156 239.335938 132.058594 240.363281 132.855469 C 241.390625 133.65625 242.398438 134.476562 243.386719 135.324219 C 244.375 136.171875 245.339844 137.042969 246.285156 137.9375 C 247.226562 138.832031 248.152344 139.75 249.050781 140.691406 C 249.949219 141.628906 250.824219 142.59375 251.675781 143.574219 Z M 251.675781 143.574219 " fill-opacity="1" fill-rule="nonzero"/></g></g></g></g><g clip-path="url(#id9)"><g clip-path="url(#id10)"><path fill="#171752" d="M 157.527344 156.800781 C 136.085938 175.386719 133.773438 207.832031 152.359375 229.273438 C 170.941406 250.710938 203.390625 253.027344 224.828125 234.441406 C 246.269531 215.855469 248.582031 183.410156 229.996094 161.96875 C 211.410156 140.53125 178.964844 138.214844 157.527344 156.800781 " fill-opacity="1" fill-rule="nonzero"/></g></g><g clip-path="url(#id11)"><path fill="#ffffff" d="M 178.957031 117.421875 L 248.703125 117.421875 L 248.703125 145.171875 L 178.957031 145.171875 L 178.957031 117.421875 " fill-opacity="1" fill-rule="nonzero"/></g><g clip-path="url(#id12)"><g clip-path="url(#id13)"><path fill="#171752" d="M 232.054688 177.519531 L 297.691406 201.105469 L 288.308594 227.222656 L 222.671875 203.632812 L 232.054688 177.519531 " fill-opacity="1" fill-rule="nonzero"/></g></g><g clip-path="url(#id14)"><path fill="#ffffff" d="M 204.539062 65.484375 L 204.539062 255.210938 L 176.789062 255.210938 L 176.789062 65.484375 L 204.539062 65.484375 " fill-opacity="1" fill-rule="nonzero"/></g><g clip-path="url(#id15)"><g clip-path="url(#id16)"><path fill="#171752" d="M 150.246094 89.507812 L 200.554688 41.203125 L 219.777344 61.21875 L 169.46875 109.523438 L 150.246094 89.507812 " fill-opacity="1" fill-rule="nonzero"/></g></g><g clip-path="url(#id17)"><g clip-path="url(#id18)"><path fill="#171752" d="M 269.300781 167.796875 L 217.453125 113.605469 L 241.296875 90.792969 L 293.144531 144.980469 L 269.300781 167.796875 " fill-opacity="1" fill-rule="nonzero"/></g></g><g clip-path="url(#id19)"><g clip-path="url(#id20)"><path fill="#171752" d="M 284.300781 182.796875 L 232.453125 128.605469 L 256.296875 105.792969 L 308.144531 159.980469 L 284.300781 182.796875 " fill-opacity="1" fill-rule="nonzero"/></g></g></svg>